<svg width="505" height="124" viewBox="0 0 505 124" fill="none" xmlns="http://www.w3.org/2000/svg">
<path class="logo-c" d="M64.5352 12C66.9339 12 69.0491 13.2146 70.2988 15.0625L70.3577 15.151C89.0378 17.2859 104.474 30.0978 110.413 47.3324L110.57 47.7952C112.141 52.5106 113.003 57.5499 113.031 62.7868L113.031 63.0445V103.613C113.031 107.832 109.611 111.252 105.392 111.252H64.8238C59.4944 111.252 54.367 110.387 49.5743 108.791L49.1117 108.634C31.7349 102.646 18.8542 87.0034 16.8796 68.1158L16.8351 67.669C14.4085 66.5838 12.7178 64.1487 12.7178 61.3186C12.7178 58.3025 14.6383 55.7349 17.3232 54.7721C18.0565 54.5091 18.8468 54.3658 19.6706 54.3658C21.381 54.3658 22.9471 54.9834 24.1582 56.0078L24.2981 56.1292C25.7251 57.4025 26.6236 59.2556 26.6236 61.3186C26.6236 63.6013 25.5236 65.627 23.8248 66.8947L23.7434 66.9546L23.7792 67.318C25.3602 82.6831 35.3722 95.5485 49.1117 101.211L49.3389 101.304C54.1204 103.241 59.3475 104.308 64.8238 104.308C87.6128 104.308 106.087 85.8335 106.087 63.0445C106.087 57.5683 105.02 52.3412 103.083 47.5598L102.99 47.3324C97.5669 34.1734 85.5364 24.4336 71.0307 22.2452L70.6876 22.1949C69.5223 24.4017 67.2044 25.9059 64.5352 25.9059C61.9394 25.9058 59.6759 24.4833 58.4816 22.3754L58.4256 22.2744C57.8879 21.2875 57.5823 20.1558 57.5823 18.9528C57.5823 17.6248 57.9547 16.3836 58.6007 15.3282L58.664 15.2267C59.8976 13.287 62.0661 12 64.5352 12Z"/>
<path class="logo-e" fill-rule="evenodd" clip-rule="evenodd" d="M99.6206 58.304C99.8298 59.8543 99.9378 61.4368 99.9378 63.0445C99.9378 65.1014 99.761 67.1171 99.4217 69.077H70.8625V77.7329H59.5041V69.077H41.6654L41.7292 69.3178C44.4854 79.4884 53.7808 86.9698 64.8236 86.9698C71.3295 86.9698 77.2288 84.373 81.5417 80.1595H95.4916C89.4856 90.8985 78.0025 98.1588 64.8236 98.1588C45.4306 98.1588 29.7095 82.4375 29.7095 63.0445C29.7095 43.6514 45.4306 27.9303 64.8236 27.9303C82.5018 27.9303 97.1288 40.994 99.5774 57.9944L99.6206 58.304ZM88.215 57.9944C85.8969 47.2061 76.3047 39.1191 64.8236 39.1191C53.3426 39.1191 43.7504 47.2061 41.4323 57.9944H59.5041V49.2448H70.8625V57.9944H88.215Z"/>
<path class="logo-gray" fill-rule="evenodd" clip-rule="evenodd" d="M484.536 30.6323C485.338 30.6323 486.027 30.7617 486.603 31.0207C487.188 31.2796 487.639 31.6556 487.956 32.1485C488.274 32.633 488.433 33.2096 488.433 33.8779C488.433 34.5378 488.274 35.1099 487.956 35.5943C487.66 36.0397 487.245 36.3898 486.715 36.6451L488.608 39.4039H485.952L484.361 37.0732H483.007V39.4039H480.526V30.6323H484.536ZM483.007 35.156H484.385C484.903 35.156 485.287 35.0431 485.538 34.8176C485.797 34.5921 485.926 34.2788 485.926 33.8779C485.926 33.4686 485.797 33.1508 485.538 32.9252C485.287 32.6997 484.903 32.5872 484.385 32.5872H483.007V35.156Z"/>
<path class="logo-gray" fill-rule="evenodd" clip-rule="evenodd" d="M484.244 26.6561C488.661 26.7681 492.207 30.3834 492.207 34.8269L492.204 35.0379C492.092 39.4544 488.476 43.0005 484.033 43.0005L483.822 42.9977C479.476 42.8877 475.973 39.3844 475.863 35.0379L475.86 34.8269C475.86 30.3129 479.519 26.6534 484.033 26.6533L484.244 26.6561ZM484.033 28.1429C480.342 28.143 477.349 31.1356 477.349 34.8269C477.349 38.5182 480.342 41.5109 484.033 41.511C487.724 41.5109 490.717 38.5183 490.717 34.8269C490.717 31.1355 487.724 28.1429 484.033 28.1429Z"/>
<path class="logo-gray" d="M469.882 99.2523C468.176 99.2523 466.597 98.975 465.146 98.4203C463.717 97.8443 462.469 97.0443 461.402 96.0203C460.357 94.975 459.536 93.759 458.938 92.3723C458.341 90.9857 458.042 89.4603 458.042 87.7963C458.042 86.1323 458.341 84.607 458.938 83.2203C459.536 81.8337 460.368 80.6283 461.434 79.6043C462.501 78.559 463.749 77.759 465.178 77.2043C466.629 76.6283 468.208 76.3403 469.914 76.3403C471.642 76.3403 473.232 76.639 474.682 77.2363C476.154 77.8123 477.402 78.6763 478.426 79.8283L476.346 81.8443C475.493 80.9483 474.533 80.287 473.466 79.8603C472.4 79.4123 471.258 79.1883 470.042 79.1883C468.784 79.1883 467.61 79.4017 466.522 79.8283C465.456 80.255 464.528 80.8523 463.738 81.6203C462.949 82.3883 462.33 83.3057 461.882 84.3723C461.456 85.4177 461.242 86.559 461.242 87.7963C461.242 89.0337 461.456 90.1857 461.882 91.2523C462.33 92.2977 462.949 93.2043 463.738 93.9723C464.528 94.7403 465.456 95.3377 466.522 95.7643C467.61 96.191 468.784 96.4043 470.042 96.4043C471.258 96.4043 472.4 96.191 473.466 95.7643C474.533 95.3163 475.493 94.6337 476.346 93.7163L478.426 95.7323C477.402 96.8843 476.154 97.759 474.682 98.3563C473.232 98.9537 471.632 99.2523 469.882 99.2523Z"/>
<path class="logo-gray" d="M443.88 98.9963V76.5963H447.08V98.9963H443.88Z"/>
<path class="logo-gray" d="M411.831 98.9963V76.5963H414.455L429.271 94.9963H427.895V76.5963H431.095V98.9963H428.471L413.655 80.5963H415.031V98.9963H411.831Z"/>
<path class="logo-gray" d="M395.845 98.9963V76.5963H399.045V98.9963H395.845Z"/>
<path class="logo-gray" d="M370.765 98.9963V76.5963H373.965V96.2123H386.093V98.9963H370.765Z"/>
<path class="logo-gray" d="M351.576 99.2523C349.869 99.2523 348.291 98.975 346.84 98.4203C345.411 97.8443 344.163 97.0443 343.096 96.0203C342.051 94.975 341.229 93.759 340.632 92.3723C340.035 90.9857 339.736 89.4603 339.736 87.7963C339.736 86.1323 340.035 84.607 340.632 83.2203C341.229 81.8337 342.061 80.6283 343.128 79.6043C344.195 78.559 345.443 77.759 346.872 77.2043C348.323 76.6283 349.901 76.3403 351.608 76.3403C353.336 76.3403 354.925 76.639 356.376 77.2363C357.848 77.8123 359.096 78.6763 360.12 79.8283L358.04 81.8443C357.187 80.9483 356.227 80.287 355.16 79.8603C354.093 79.4123 352.952 79.1883 351.736 79.1883C350.477 79.1883 349.304 79.4017 348.216 79.8283C347.149 80.255 346.221 80.8523 345.432 81.6203C344.643 82.3883 344.024 83.3057 343.576 84.3723C343.149 85.4177 342.936 86.559 342.936 87.7963C342.936 89.0337 343.149 90.1857 343.576 91.2523C344.024 92.2977 344.643 93.2043 345.432 93.9723C346.221 94.7403 347.149 95.3377 348.216 95.7643C349.304 96.191 350.477 96.4043 351.736 96.4043C352.952 96.4043 354.093 96.191 355.16 95.7643C356.227 95.3163 357.187 94.6337 358.04 93.7163L360.12 95.7323C359.096 96.8843 357.848 97.759 356.376 98.3563C354.925 98.9537 353.325 99.2523 351.576 99.2523Z"/>
<path class="logo-gray" d="M301.806 98.9963V76.5963H305.006V96.2123H317.134V98.9963H301.806Z"/>
<path class="logo-gray" d="M268.897 98.9963L279.041 76.5963H282.209L292.385 98.9963H289.025L279.969 78.3883H281.249L272.193 98.9963H268.897ZM273.217 93.3963L274.081 90.8363H286.689L287.617 93.3963H273.217Z"/>
<path class="logo-gray" d="M253.631 99.2523C251.924 99.2523 250.346 98.975 248.895 98.4203C247.466 97.8443 246.218 97.0443 245.151 96.0203C244.106 94.975 243.284 93.759 242.687 92.3723C242.09 90.9857 241.791 89.4603 241.791 87.7963C241.791 86.1323 242.09 84.607 242.687 83.2203C243.284 81.8337 244.116 80.6283 245.183 79.6043C246.25 78.559 247.498 77.759 248.927 77.2043C250.378 76.6283 251.956 76.3403 253.663 76.3403C255.391 76.3403 256.98 76.639 258.431 77.2363C259.903 77.8123 261.151 78.6763 262.175 79.8283L260.095 81.8443C259.242 80.9483 258.282 80.287 257.215 79.8603C256.148 79.4123 255.007 79.1883 253.791 79.1883C252.532 79.1883 251.359 79.4017 250.271 79.8283C249.204 80.255 248.276 80.8523 247.487 81.6203C246.698 82.3883 246.079 83.3057 245.631 84.3723C245.204 85.4177 244.991 86.559 244.991 87.7963C244.991 89.0337 245.204 90.1857 245.631 91.2523C246.079 92.2977 246.698 93.2043 247.487 93.9723C248.276 94.7403 249.204 95.3377 250.271 95.7643C251.359 96.191 252.532 96.4043 253.791 96.4043C255.007 96.4043 256.148 96.191 257.215 95.7643C258.282 95.3163 259.242 94.6337 260.095 93.7163L262.175 95.7323C261.151 96.8843 259.903 97.759 258.431 98.3563C256.98 98.9537 255.38 99.2523 253.631 99.2523Z"/>
<path class="logo-gray" d="M227.629 98.9963V76.5963H230.829V98.9963H227.629Z"/>
<path class="logo-gray" d="M195.111 98.9963V76.5963H204.551C206.941 76.5963 209.042 77.0657 210.855 78.0043C212.69 78.943 214.109 80.255 215.111 81.9403C216.135 83.6257 216.647 85.5777 216.647 87.7963C216.647 90.015 216.135 91.967 215.111 93.6523C214.109 95.3377 212.69 96.6497 210.855 97.5883C209.042 98.527 206.941 98.9963 204.551 98.9963H195.111ZM198.311 96.2123H204.359C206.215 96.2123 207.815 95.8603 209.159 95.1563C210.525 94.4523 211.581 93.471 212.327 92.2123C213.074 90.9323 213.447 89.4603 213.447 87.7963C213.447 86.111 213.074 84.639 212.327 83.3803C211.581 82.1217 210.525 81.1403 209.159 80.4363C207.815 79.7323 206.215 79.3803 204.359 79.3803H198.311V96.2123Z"/>
<path class="logo-gray" d="M170.506 86.2603H182.026V88.9803H170.506V86.2603ZM170.794 96.2123H183.85V98.9963H167.594V76.5963H183.402V79.3803H170.794V96.2123Z"/>
<path class="logo-gray" d="M130.951 98.9963V76.5963H133.575L143.623 93.5243H142.215L152.135 76.5963H154.759L154.791 98.9963H151.719L151.687 81.4283H152.423L143.591 96.2763H142.119L133.223 81.4283H134.023V98.9963H130.951Z"/>
<path class="logo-dark" fill-rule="evenodd" clip-rule="evenodd" d="M240.52 30.8105C243.364 30.8106 245.957 31.2623 248.299 32.1657C250.674 33.0691 252.732 34.3573 254.472 36.0303C256.212 37.6698 257.567 39.5939 258.537 41.8022C259.541 44.0105 260.043 46.4363 260.043 49.0796C260.043 51.7229 259.541 54.1655 258.537 56.4074C257.567 58.6157 256.212 60.5398 254.472 62.1793C252.732 63.8188 250.674 65.0901 248.299 65.9935C245.957 66.8969 243.364 67.3486 240.52 67.3486C237.709 67.3486 235.116 66.8969 232.74 65.9935C230.364 65.0901 228.29 63.8188 226.517 62.1793C224.777 60.5064 223.422 58.5657 222.451 56.3574C221.481 54.149 220.996 51.7229 220.996 49.0796C220.996 46.4363 221.481 44.0105 222.451 41.8022C223.422 39.5939 224.777 37.6698 226.517 36.0303C228.29 34.3573 230.364 33.0691 232.74 32.1657C235.116 31.2622 237.709 30.8105 240.52 30.8105ZM240.52 39.0416C239.181 39.0416 237.926 39.2757 236.755 39.7441C235.618 40.2125 234.614 40.8988 233.744 41.8022C232.908 42.6722 232.238 43.7263 231.736 44.9643C231.268 46.1688 231.034 47.5405 231.034 49.0796C231.034 50.5853 231.268 51.9573 231.736 53.1953C232.238 54.4333 232.908 55.504 233.744 56.4074C234.614 57.2773 235.618 57.9466 236.755 58.415C237.926 58.8835 239.181 59.1176 240.52 59.1176C241.858 59.1176 243.096 58.8834 244.233 58.415C245.404 57.9466 246.408 57.2773 247.245 56.4074C248.115 55.504 248.784 54.4333 249.252 53.1953C249.754 51.9573 250.005 50.5853 250.005 49.0796C250.005 47.5405 249.754 46.1688 249.252 44.9643C248.784 43.7263 248.115 42.6722 247.245 41.8022C246.408 40.8988 245.404 40.2125 244.233 39.7441C243.096 39.2757 241.858 39.0416 240.52 39.0416Z"/>
<path class="logo-dark" d="M321.394 30.8105C323.703 30.8105 325.961 31.0781 328.17 31.6134C330.411 32.1153 332.402 32.8685 334.142 33.8723L331.08 41.25C329.408 40.3466 327.751 39.6773 326.112 39.2423C324.472 38.7739 322.883 38.5398 321.344 38.5398C319.972 38.5398 318.868 38.6905 318.031 38.9916C317.195 39.2593 316.592 39.6272 316.224 40.0956C315.856 40.564 315.672 41.0996 315.672 41.7019C315.672 42.4714 316.024 43.0904 316.726 43.5588C317.463 43.9937 318.416 44.3616 319.587 44.6627C320.792 44.9304 322.097 45.2149 323.502 45.516C324.941 45.8172 326.363 46.202 327.768 46.6704C329.207 47.1054 330.512 47.7078 331.683 48.4774C332.854 49.2135 333.791 50.2008 334.494 51.4388C335.23 52.6433 335.598 54.1657 335.598 56.0059C335.598 58.047 335.012 59.9376 333.841 61.6775C332.703 63.3839 330.98 64.7555 328.671 65.7928C326.396 66.83 323.519 67.3486 320.039 67.3486C317.161 67.3486 314.384 66.9977 311.707 66.295C309.064 65.5589 306.906 64.6216 305.233 63.484L308.495 56.1567C310.068 57.1605 311.875 57.997 313.916 58.6662C315.99 59.3018 318.048 59.6194 320.089 59.6194C321.461 59.6194 322.565 59.5026 323.402 59.2684C324.238 59.0007 324.841 58.6658 325.209 58.2643C325.61 57.8294 325.811 57.3275 325.811 56.7589C325.811 55.9558 325.442 55.32 324.706 54.8515C323.97 54.3831 323.017 53.9983 321.846 53.6971C320.675 53.396 319.37 53.095 317.931 52.7939C316.526 52.4927 315.104 52.1079 313.665 51.6395C312.259 51.1711 310.971 50.5686 309.8 49.8325C308.629 49.0629 307.675 48.0757 306.939 46.8712C306.203 45.6332 305.835 44.0773 305.835 42.2037C305.835 40.0958 306.404 38.1885 307.541 36.4821C308.712 34.7757 310.453 33.4036 312.762 32.3664C315.07 31.3292 317.948 30.8105 321.394 30.8105Z"/>
<path class="logo-dark" d="M350.828 50.6858C350.828 53.6971 351.414 55.8554 352.585 57.1603C353.789 58.4652 355.429 59.1175 357.504 59.1176C359.578 59.1176 361.201 58.4652 362.372 57.1603C363.543 55.8554 364.129 53.6972 364.129 50.6858V31.5131H373.916V50.9869C373.916 56.2067 372.46 60.2385 369.549 63.0826C366.638 65.9267 362.589 67.3486 357.403 67.3486C352.217 67.3486 348.169 65.9266 345.258 63.0826C342.347 60.2385 340.891 56.2067 340.891 50.9869V31.5131H350.828V50.6858Z"/>
<path class="logo-dark" d="M195.17 46.1084L208.771 31.5131H219.713L205.368 47.0523L220.465 66.6461H208.922L198.859 53.8913L195.17 57.8451V66.6461H185.333V31.5131H195.17V46.1084Z"/>
<path class="logo-dark" d="M289.942 50.2363V31.5131H299.679V66.6461H291.498L275.989 47.9233V66.6461H266.252V31.5131H274.433L289.942 50.2363Z"/>
<path class="logo-dark" d="M391.59 58.7665H408.353V66.6461H381.652V31.5131H391.59V58.7665Z"/>
<path class="logo-dark" d="M438.162 39.3931H427.421V66.6461H417.484V39.3931H406.693V31.5131H438.162V39.3931Z"/>
<path class="logo-dark" fill-rule="evenodd" clip-rule="evenodd" d="M477.742 66.6461H467.403L464.663 59.8201H449.765L447.026 66.6461H436.887L452.396 31.5131H462.183L477.742 66.6461ZM452.706 52.4928H461.723L457.214 41.2589L452.706 52.4928Z"/>
<path class="logo-dark" d="M178.422 56.0059H163.766V48.6781H178.422V56.0059Z"/>
<path class="logo-dark" d="M158.68 39.1924H140.963V45.1146H156.572V52.5428H140.963V58.9673H159.332V66.6461H131.125V31.5131H158.68V39.1924Z"/>
<style>
  .logo-c { fill: #38DB80; }
  .logo-e { fill: #008FFF; }
  .logo-gray { fill: #69737C; }
  .logo-dark { fill: #404A52; }
  .dark .logo-c { fill: #58F69E; }
  .dark .logo-e { fill: #1A9AFF; }
  .dark .logo-gray { fill: #99A8B5; }
  .dark .logo-dark { fill: #FFFFFF; }
</style>
</svg>
