<svg width="16" height="17" viewBox="0 0 16 17" fill="none" xmlns="http://www.w3.org/2000/svg">
<g clip-path="url(#clip0_421_401)">
<path d="M5.57338 1.02637C3.97473 1.58096 2.59606 2.63358 1.63987 4.02962C0.683675 5.42567 0.200366 7.09155 0.26093 8.78258C0.321493 10.4736 0.922737 12.1006 1.97635 13.4247C3.02996 14.7488 4.4804 15.7001 6.11463 16.1389C7.43953 16.4807 8.82764 16.4958 10.1596 16.1826C11.3663 15.9116 12.4819 15.3318 13.3971 14.5001C14.3497 13.6081 15.0412 12.4732 15.3971 11.2176C15.784 9.85221 15.8529 8.41629 15.5984 7.02012H8.15838V10.1064H12.4671C12.381 10.5986 12.1965 11.0684 11.9246 11.4877C11.6527 11.9069 11.2989 12.267 10.8846 12.5464C10.3585 12.8944 9.76537 13.1286 9.14338 13.2339C8.51956 13.3499 7.8797 13.3499 7.25588 13.2339C6.62361 13.1031 6.0255 12.8422 5.49963 12.4676C4.65481 11.8696 4.02047 11.02 3.68713 10.0401C3.34815 9.04186 3.34815 7.95963 3.68713 6.96137C3.92441 6.26164 4.31667 5.62454 4.83463 5.09762C5.42737 4.48355 6.17779 4.04462 7.00357 3.82896C7.82935 3.61331 8.69858 3.62928 9.51588 3.87512C10.1543 4.07111 10.7382 4.41354 11.2209 4.87512C11.7067 4.39179 12.1917 3.9072 12.6759 3.42137C12.9259 3.16012 13.1984 2.91137 13.4446 2.64387C12.7078 1.95822 11.843 1.42469 10.8996 1.07387C9.18176 0.450107 7.3021 0.433344 5.57338 1.02637Z" fill="#18181B"/>
<path d="M5.57348 1.02624C7.30206 0.432816 9.18171 0.449138 10.8997 1.07249C11.8432 1.4257 12.7077 1.96179 13.4435 2.64999C13.1935 2.91749 12.9297 3.16749 12.6747 3.42749C12.1897 3.91166 11.7051 4.39416 11.221 4.87499C10.7383 4.41342 10.1544 4.07098 9.51598 3.87499C8.69895 3.6283 7.82975 3.6114 7.00375 3.82617C6.17775 4.04094 5.42687 4.47907 4.83348 5.09249C4.31552 5.61941 3.92326 6.25652 3.68598 6.95624L1.09473 4.94999C2.02224 3.1107 3.62816 1.70377 5.57348 1.02624Z" fill="#E33629"/>
<path d="M0.407926 6.93745C0.547203 6.24719 0.778431 5.57873 1.09543 4.94995L3.68668 6.9612C3.34769 7.95946 3.34769 9.04169 3.68668 10.04C2.82334 10.7066 1.95959 11.3766 1.09543 12.05C0.301864 10.4703 0.0598419 8.67058 0.407926 6.93745Z" fill="#F8BD00"/>
<path d="M8.15876 7.0188H15.5988C15.8533 8.41496 15.7844 9.85088 15.3975 11.2163C15.0416 12.4719 14.3501 13.6067 13.3975 14.4988C12.5613 13.8463 11.7213 13.1988 10.885 12.5463C11.2996 12.2666 11.6535 11.9062 11.9254 11.4865C12.1973 11.0668 12.3817 10.5965 12.4675 10.1038H8.15876C8.15751 9.0763 8.15876 8.04755 8.15876 7.0188Z" fill="#587DBD"/>
<path d="M1.09375 12.05C1.95792 11.3834 2.82167 10.7134 3.685 10.04C4.01901 11.0203 4.65426 11.8699 5.5 12.4675C6.02751 12.8404 6.62691 13.0992 7.26 13.2275C7.88382 13.3435 8.52368 13.3435 9.1475 13.2275C9.76949 13.1223 10.3626 12.8881 10.8888 12.54C11.725 13.1925 12.565 13.84 13.4012 14.4925C12.4861 15.3247 11.3705 15.9049 10.1637 16.1763C8.83176 16.4894 7.44365 16.4744 6.11875 16.1325C5.07088 15.8528 4.09209 15.3595 3.24375 14.6838C2.34583 13.9709 1.61244 13.0725 1.09375 12.05Z" fill="#319F43"/>
</g>
<defs>
<clipPath id="clip0_421_401">
<rect width="16" height="16" fill="white" transform="translate(0 0.5)"/>
</clipPath>
</defs>
</svg>
