<svg width="141" height="141" viewBox="0 0 141 141" fill="none" xmlns="http://www.w3.org/2000/svg">
<path class="favicon-c" d="M72.717 10.8799C75.6049 10.8799 78.1514 12.3422 79.656 14.5669L79.7269 14.6735C102.216 17.2437 120.801 32.6683 127.951 53.4176L128.139 53.9748C130.031 59.6518 131.069 65.7187 131.102 72.0236L131.103 72.3339V121.175C131.103 126.255 126.985 130.373 121.906 130.373H73.0645C66.6483 130.373 60.4753 129.331 54.7052 127.409L54.1482 127.22C33.2278 120.011 17.7203 101.179 15.343 78.4393L15.2894 77.9014C12.3681 76.5949 10.3325 73.6632 10.3325 70.256C10.3326 66.6248 12.6448 63.5337 15.8771 62.3745C16.76 62.0578 17.7115 61.8853 18.7033 61.8853C20.7625 61.8853 22.6479 62.6289 24.106 63.8622L24.2744 64.0083C25.9924 65.5413 27.0742 67.7723 27.0742 70.256C27.0742 73.0042 25.7498 75.4431 23.7045 76.9692L23.6066 77.0413L23.6497 77.4789C25.5531 95.9773 37.6069 111.466 54.1482 118.283L54.4218 118.395C60.1783 120.728 66.4714 122.012 73.0645 122.012C100.501 122.012 122.742 99.7702 122.742 72.3339C122.742 65.7409 121.458 59.4479 119.126 53.6914L119.014 53.4176C112.485 37.575 98.001 25.849 80.5372 23.2144L80.1241 23.1538C78.7212 25.8107 75.9305 27.6216 72.717 27.6216C69.5919 27.6215 66.8668 25.9089 65.429 23.3712L65.3615 23.2495C64.7142 22.0613 64.3463 20.6989 64.3463 19.2506C64.3463 17.6517 64.7945 16.1575 65.5723 14.8868L65.6485 14.7646C67.1338 12.4293 69.7445 10.8799 72.717 10.8799Z"/>
<path class="favicon-e" fill-rule="evenodd" clip-rule="evenodd" d="M114.957 66.6266C115.209 68.4931 115.339 70.3983 115.339 72.3338C115.339 74.8102 115.126 77.237 114.718 79.5966H80.3347V90.0177H66.66V79.5966H45.1834L45.2603 79.8864C48.5784 92.1312 59.7695 101.138 73.0643 101.138C80.8968 101.138 87.9992 98.0119 93.1917 92.9391H109.986C102.756 105.868 88.9307 114.609 73.0643 114.609C49.7164 114.609 30.7893 95.6817 30.7893 72.3338C30.7893 48.986 49.7164 30.0588 73.0643 30.0588C94.3476 30.0588 111.957 45.7867 114.905 66.2539L114.957 66.6266ZM101.226 66.2539C98.435 53.2655 86.8866 43.5294 73.0643 43.5294C59.242 43.5294 47.6936 53.2655 44.9028 66.2539H66.66V55.72H80.3347V66.2539H101.226Z"/>
<style>
  .favicon-c { fill: #38DB80; }
  .favicon-e { fill: #008FFF; }
  @media (prefers-color-scheme: dark) {
    .favicon-c { fill: #58F69E; }
    .favicon-e { fill: #1A9AFF; }
  }
</style>
</svg>
